<svg xmlns="http://www.w3.org/2000/svg" viewBox="0 0 500 500"><g id="freepik--background-simple--inject-10"><path d="M460.78,397.51c7.33-15.78,10.58-33.33,12.83-50.38,6.2-47,3.73-95.36-9.85-141.09C432.81,101.76,373.29,39.5,297.89,32.74S150.27,66.5,122.49,143,16.14,283.31,29.63,345.58s72.23,105,188.1,119.28c50.48,6.21,103.91,9,153.62-3.47,28.37-7.13,56.26-20.92,75.43-42.35A87.72,87.72,0,0,0,460.78,397.51Z" style="fill:#06183B"></path><path d="M460.78,397.51c7.33-15.78,10.58-33.33,12.83-50.38,6.2-47,3.73-95.36-9.85-141.09C432.81,101.76,373.29,39.5,297.89,32.74S150.27,66.5,122.49,143,16.14,283.31,29.63,345.58s72.23,105,188.1,119.28c50.48,6.21,103.91,9,153.62-3.47,28.37-7.13,56.26-20.92,75.43-42.35A87.72,87.72,0,0,0,460.78,397.51Z" style="fill:#fff;opacity:0.7000000000000001"></path></g><g id="freepik--Floor--inject-10"><line x1="470.23" y1="421" x2="483" y2="421" style="fill:none;stroke:#263238;stroke-linecap:round;stroke-linejoin:round"></line><line x1="97.01" y1="421" x2="462.53" y2="421" style="fill:none;stroke:#263238;stroke-linecap:round;stroke-linejoin:round"></line><line x1="23" y1="421" x2="85.88" y2="421" style="fill:none;stroke:#263238;stroke-linecap:round;stroke-linejoin:round"></line></g><g id="freepik--geometric-shapes--inject-10"><rect x="250.1" y="116.24" width="14.81" height="14.81" style="fill:#06183B;stroke:#263238;stroke-linecap:round;stroke-linejoin:round"></rect><rect x="283.44" y="140.91" width="14.81" height="14.81" transform="translate(-25.81 227.82) rotate(-41.11)" style="fill:#06183B;stroke:#263238;stroke-linecap:round;stroke-linejoin:round"></rect><rect x="200.1" y="74.91" width="14.81" height="14.81" transform="translate(-2.96 156.75) rotate(-41.11)" style="fill:#263238;stroke:#263238;stroke-linecap:round;stroke-linejoin:round"></rect><rect x="200.1" y="134.91" width="14.81" height="14.81" transform="translate(-42.41 171.54) rotate(-41.11)" style="fill:#fff;stroke:#263238;stroke-linecap:round;stroke-linejoin:round"></rect><rect x="266.1" y="74.24" width="14.81" height="14.81" transform="translate(13.75 199.98) rotate(-41.11)" style="fill:#06183B;stroke:#263238;stroke-linecap:round;stroke-linejoin:round"></rect><polygon points="263.39 141.13 266.54 147.49 273.56 148.51 268.48 153.46 269.68 160.45 263.39 157.15 257.12 160.45 258.31 153.46 253.24 148.51 260.25 147.49 263.39 141.13" style="fill:#263238;stroke:#263238;stroke-linecap:round;stroke-linejoin:round"></polygon><polygon points="209.92 96 213.06 102.36 220.08 103.38 215 108.33 216.2 115.33 209.92 112.02 203.64 115.33 204.84 108.33 199.76 103.38 206.78 102.36 209.92 96" style="fill:#06183B;stroke:#263238;stroke-linecap:round;stroke-linejoin:round"></polygon><polygon points="302.63 60.71 300.47 67.47 304.81 73.08 297.72 73.11 293.72 78.97 291.5 72.24 284.69 70.25 290.41 66.05 290.2 58.96 295.96 63.11 302.63 60.71" style="fill:#fff;stroke:#263238;stroke-linecap:round;stroke-linejoin:round"></polygon><polygon points="255.32 172.81 262.36 173.68 267.07 168.38 268.42 175.34 274.92 178.19 268.71 181.62 268.02 188.68 262.83 183.83 255.91 185.36 258.91 178.93 255.32 172.81" style="fill:#06183B;stroke:#263238;stroke-linecap:round;stroke-linejoin:round"></polygon><circle cx="284.75" cy="121.41" r="10.41" transform="translate(100.9 370.46) rotate(-76.66)" style="fill:#fff;stroke:#263238;stroke-linecap:round;stroke-linejoin:round"></circle><circle cx="244.33" cy="187.67" r="10.41" transform="translate(-61.14 227.74) rotate(-45)" style="fill:#fff;stroke:#263238;stroke-linecap:round;stroke-linejoin:round"></circle><circle cx="317" cy="89.25" r="10.41" transform="translate(-11.18 116.72) rotate(-20.51)" style="fill:#263238;stroke:#263238;stroke-linecap:round;stroke-linejoin:round"></circle><circle cx="239.42" cy="102.75" r="10.41" transform="translate(84.19 311.99) rotate(-76.66)" style="fill:#fff;stroke:#263238;stroke-linecap:round;stroke-linejoin:round"></circle><polygon points="239.95 134.52 223.31 124.06 222.58 143.7 239.95 134.52" style="fill:#263238;stroke:#263238;stroke-linecap:round;stroke-linejoin:round"></polygon><polygon points="317.87 127.48 314.69 108.09 299.49 120.54 317.87 127.48" style="fill:#263238;stroke:#263238;stroke-linecap:round;stroke-linejoin:round"></polygon><polygon points="246.27 171.1 247.06 151.47 229.66 160.6 246.27 171.1" style="fill:#06183B;stroke:#263238;stroke-linecap:round;stroke-linejoin:round"></polygon><polygon points="297.03 105.07 297.82 85.43 280.42 94.57 297.03 105.07" style="fill:#06183B;stroke:#263238;stroke-linecap:round;stroke-linejoin:round"></polygon><polygon points="229.09 67.48 239.34 84.25 248.74 66.99 229.09 67.48" style="fill:#06183B;stroke:#263238;stroke-linecap:round;stroke-linejoin:round"></polygon></g><g id="freepik--Graphics--inject-10"><g style="opacity:0.30000000000000004"><path d="M392.56,153.1a.5.5,0,0,1-.5-.5v-6.49c0-3.32-.31-15-.32-15.14a.5.5,0,0,1,.47-.51c.08,0,8.05-.48,14.67-.24s10.07,0,10.11,0a.56.56,0,0,1,.37.13.46.46,0,0,1,.16.35l1,21.64a.55.55,0,0,1-.14.37.51.51,0,0,1-.36.15H406.54c-4.39,0-13.87.24-14,.24Zm.2-21.67c.06,2.26.3,11.74.3,14.68v6c2-.05,9.67-.23,13.48-.23h10.92l-.91-20.61c-1.21.05-4.52.16-9.71,0C401.2,131,394.58,131.33,392.76,131.43Z"></path><path d="M408.75,132.53a1.66,1.66,0,1,0-1.66,1.67A1.66,1.66,0,0,0,408.75,132.53Z"></path><circle cx="409.03" cy="131.39" r="1.66"></circle><path d="M405,134.61a.49.49,0,0,1-.37-.16.5.5,0,0,1,0-.71l1.14-1a.5.5,0,0,1,.71,0,.5.5,0,0,1,0,.71l-1.14,1A.5.5,0,0,1,405,134.61Z"></path><path d="M410.75,139.13H397.86a.5.5,0,0,1,0-1h12.89a.5.5,0,0,1,0,1Z"></path><path d="M411.51,143.43H397.86a.5.5,0,0,1,0-1h13.65a.5.5,0,0,1,0,1Z"></path><path d="M411.77,147.48H397.86a.5.5,0,0,1-.5-.5.5.5,0,0,1,.5-.5h13.91a.5.5,0,0,1,.5.5A.51.51,0,0,1,411.77,147.48Z"></path></g><g style="opacity:0.30000000000000004"><path d="M456.05,226.39a.5.5,0,0,1-.35-.14.51.51,0,0,1-.15-.36V219.4c0-3.33-.31-15-.32-15.14a.51.51,0,0,1,.47-.52c.08,0,8.05-.48,14.66-.24s10.08,0,10.12,0a.56.56,0,0,1,.37.13.48.48,0,0,1,.16.35l1,21.65a.52.52,0,0,1-.14.36.52.52,0,0,1-.36.16H470c-4.39,0-13.87.24-14,.24Zm.2-21.67c.06,2.25.3,11.73.3,14.68v6c2,0,9.67-.23,13.48-.23h10.91l-.9-20.62c-1.21.06-4.52.16-9.71,0C464.69,204.3,458.06,204.62,456.25,204.72Z"></path><path d="M472.24,205.82a1.66,1.66,0,1,0-1.66,1.66A1.66,1.66,0,0,0,472.24,205.82Z"></path><path d="M474.18,204.68a1.66,1.66,0,1,0-1.66,1.66A1.66,1.66,0,0,0,474.18,204.68Z"></path><path d="M468.53,207.9a.5.5,0,0,1-.34-.87l1.14-1a.5.5,0,1,1,.67.74l-1.14,1A.46.46,0,0,1,468.53,207.9Z"></path><path d="M474.24,212.41h-12.9a.5.5,0,0,1-.5-.5.51.51,0,0,1,.5-.5h12.9a.5.5,0,0,1,.5.5A.5.5,0,0,1,474.24,212.41Z"></path><path d="M475,216.71H461.34a.5.5,0,0,1-.5-.5.51.51,0,0,1,.5-.5H475a.5.5,0,0,1,.5.5A.5.5,0,0,1,475,216.71Z"></path><path d="M475.25,220.76H461.34a.5.5,0,1,1,0-1h13.91a.5.5,0,0,1,0,1Z"></path></g><g style="opacity:0.30000000000000004"><path d="M161,190.35a.5.5,0,0,1-.35-.14.53.53,0,0,1-.15-.36v-6.49c0-3.32-.31-15-.32-15.14a.5.5,0,0,1,.47-.51c.08,0,8.05-.49,14.66-.24s10.08,0,10.12,0a.5.5,0,0,1,.37.12.48.48,0,0,1,.16.35l1,21.65a.55.55,0,0,1-.14.37.51.51,0,0,1-.36.15H175c-4.39,0-13.87.24-14,.24Zm.2-21.67c.06,2.26.3,11.73.3,14.68v6c2-.05,9.67-.23,13.48-.23H185.9l-.9-20.62c-1.21.06-4.52.16-9.71,0C169.65,168.26,163,168.58,161.21,168.68Z"></path><path d="M177.2,169.78a1.66,1.66,0,1,0-1.66,1.66A1.66,1.66,0,0,0,177.2,169.78Z"></path><path d="M179.14,168.64a1.66,1.66,0,1,0-1.66,1.66A1.66,1.66,0,0,0,179.14,168.64Z"></path><path d="M173.49,171.86a.49.49,0,0,1-.37-.16.5.5,0,0,1,0-.71l1.14-1a.5.5,0,0,1,.71,0,.5.5,0,0,1,0,.71l-1.14,1A.46.46,0,0,1,173.49,171.86Z"></path><path d="M179.2,176.38H166.3a.51.51,0,0,1-.5-.5.5.5,0,0,1,.5-.5h12.9a.5.5,0,0,1,.5.5A.5.5,0,0,1,179.2,176.38Z"></path><path d="M180,180.68H166.3a.51.51,0,0,1-.5-.5.5.5,0,0,1,.5-.5H180a.5.5,0,0,1,.5.5A.5.5,0,0,1,180,180.68Z"></path><path d="M180.21,184.72H166.3a.5.5,0,0,1-.5-.5.51.51,0,0,1,.5-.5h13.91a.5.5,0,0,1,.5.5A.5.5,0,0,1,180.21,184.72Z"></path></g><g style="opacity:0.30000000000000004"><path d="M357.86,186a.49.49,0,0,1-.34-.14.48.48,0,0,1-.16-.36v-6.49c0-3.32-.31-15-.31-15.14a.5.5,0,0,1,.47-.51c.08,0,8-.48,14.66-.24s10.08,0,10.11,0a.56.56,0,0,1,.37.13.51.51,0,0,1,.17.35l.95,21.64a.47.47,0,0,1-.14.37.48.48,0,0,1-.36.15H371.84c-4.39,0-13.87.24-14,.24Zm.2-21.67c.06,2.26.3,11.74.3,14.68v6c2.05-.05,9.67-.23,13.48-.23h10.92l-.91-20.61c-1.2.05-4.52.16-9.71,0C366.5,164,359.88,164.27,358.06,164.37Z"></path><path d="M374.06,165.47a1.67,1.67,0,1,0-1.67,1.67A1.67,1.67,0,0,0,374.06,165.47Z"></path><path d="M376,164.33a1.67,1.67,0,1,0-1.67,1.67A1.66,1.66,0,0,0,376,164.33Z"></path><path d="M370.34,167.56a.51.51,0,0,1-.37-.17.51.51,0,0,1,0-.71l1.14-1a.49.49,0,0,1,.7,0,.5.5,0,0,1,0,.71l-1.14,1A.55.55,0,0,1,370.34,167.56Z"></path><path d="M376.06,172.07h-12.9a.5.5,0,0,1,0-1h12.9a.5.5,0,0,1,0,1Z"></path><path d="M376.82,176.37H363.16a.5.5,0,1,1,0-1h13.66a.5.5,0,1,1,0,1Z"></path><path d="M377.07,180.42H363.16a.5.5,0,0,1-.5-.5.5.5,0,0,1,.5-.5h13.91a.5.5,0,0,1,.5.5A.5.5,0,0,1,377.07,180.42Z"></path></g><g style="opacity:0.30000000000000004"><path d="M419.2,186a.5.5,0,0,1-.35-.14.48.48,0,0,1-.15-.36v-6.49c0-3.32-.32-15-.32-15.14a.5.5,0,0,1,.47-.51c.08,0,8-.48,14.66-.24s10.08,0,10.12,0a.53.53,0,0,1,.36.13.51.51,0,0,1,.17.35l.95,21.64a.5.5,0,0,1-.13.37.51.51,0,0,1-.37.15H433.18c-4.39,0-13.87.24-14,.24Zm.19-21.67c.06,2.26.31,11.74.31,14.68v6c2-.05,9.67-.23,13.48-.23h10.91l-.91-20.61c-1.2.05-4.51.16-9.7,0C427.84,164,421.21,164.27,419.39,164.37Z"></path><path d="M435.39,165.47a1.67,1.67,0,1,0-1.66,1.67A1.67,1.67,0,0,0,435.39,165.47Z"></path><path d="M437.33,164.33a1.67,1.67,0,1,0-1.66,1.67A1.66,1.66,0,0,0,437.33,164.33Z"></path><path d="M431.68,167.56a.5.5,0,0,1-.34-.88l1.14-1a.5.5,0,1,1,.67.74l-1.14,1A.53.53,0,0,1,431.68,167.56Z"></path><path d="M437.39,172.07h-12.9a.5.5,0,0,1,0-1h12.9a.5.5,0,0,1,0,1Z"></path><path d="M438.15,176.37H424.49a.5.5,0,0,1,0-1h13.66a.5.5,0,0,1,0,1Z"></path><path d="M438.4,180.42H424.49a.51.51,0,0,1-.5-.5.5.5,0,0,1,.5-.5H438.4a.5.5,0,0,1,.5.5A.5.5,0,0,1,438.4,180.42Z"></path></g><g style="opacity:0.30000000000000004"><path d="M430.38,134.65a.51.51,0,0,1-.35-.15.47.47,0,0,1-.15-.35v-6.5c0-3.32-.31-15-.32-15.14A.5.5,0,0,1,430,112c.08,0,8.05-.48,14.66-.24s10.08,0,10.12,0a.56.56,0,0,1,.37.13.46.46,0,0,1,.16.35l1,21.64a.55.55,0,0,1-.14.37.51.51,0,0,1-.36.15H444.36c-4.39,0-13.87.24-14,.25Zm.2-21.68c.06,2.26.3,11.74.3,14.68v6c2,0,9.67-.23,13.48-.23h10.91l-.9-20.61c-1.21,0-4.52.16-9.71,0C439,112.56,432.39,112.87,430.58,113Z"></path><path d="M446.57,114.07a1.66,1.66,0,1,0-1.66,1.67A1.66,1.66,0,0,0,446.57,114.07Z"></path><circle cx="446.85" cy="112.93" r="1.66"></circle><path d="M442.86,116.16a.5.5,0,0,1-.37-.17.5.5,0,0,1,0-.71l1.14-1a.5.5,0,0,1,.71,0,.5.5,0,0,1,0,.71l-1.14,1A.51.51,0,0,1,442.86,116.16Z"></path><path d="M448.57,120.67h-12.9a.5.5,0,0,1,0-1h12.9a.5.5,0,0,1,0,1Z"></path><path d="M449.33,125H435.67a.5.5,0,0,1,0-1h13.66a.5.5,0,0,1,0,1Z"></path><path d="M449.58,129H435.67a.51.51,0,0,1-.5-.5.5.5,0,0,1,.5-.5h13.91a.5.5,0,0,1,.5.5A.5.5,0,0,1,449.58,129Z"></path></g><g style="opacity:0.30000000000000004"><path d="M353.71,129.31a.5.5,0,0,1-.5-.5v-6.49c0-3.32-.31-15-.31-15.14a.49.49,0,0,1,.47-.51c.07,0,8-.48,14.66-.24s10.08,0,10.11,0a.5.5,0,0,1,.37.12.53.53,0,0,1,.17.35l.95,21.65a.47.47,0,0,1-.14.37.48.48,0,0,1-.36.15H367.69c-4.39,0-13.87.24-14,.24Zm.2-21.67c.06,2.26.3,11.73.3,14.68v6c2.05-.05,9.67-.23,13.48-.23h10.92l-.91-20.62c-1.21.06-4.52.16-9.71,0C362.35,107.22,355.73,107.54,353.91,107.64Z"></path><circle cx="368.24" cy="108.74" r="1.66"></circle><path d="M371.84,107.6a1.66,1.66,0,1,0-1.66,1.66A1.66,1.66,0,0,0,371.84,107.6Z"></path><path d="M366.19,110.82a.49.49,0,0,1-.37-.16.5.5,0,0,1,0-.71l1.14-1a.5.5,0,0,1,.67.75l-1.14,1A.5.5,0,0,1,366.19,110.82Z"></path><path d="M371.91,115.34H359a.5.5,0,0,1-.5-.5.5.5,0,0,1,.5-.5h12.9a.5.5,0,0,1,.5.5A.51.51,0,0,1,371.91,115.34Z"></path><path d="M372.66,119.64H359a.5.5,0,0,1-.5-.5.5.5,0,0,1,.5-.5h13.65a.5.5,0,0,1,.5.5A.5.5,0,0,1,372.66,119.64Z"></path><path d="M372.92,123.68H359a.5.5,0,0,1-.5-.5.5.5,0,0,1,.5-.5h13.91a.51.51,0,0,1,.5.5A.5.5,0,0,1,372.92,123.68Z"></path></g><g style="opacity:0.30000000000000004"><rect x="60.33" y="129.33" width="13.1" height="13.1" style="fill:none;stroke:#000;stroke-linecap:round;stroke-linejoin:round"></rect><line x1="79.44" y1="135.89" x2="117.67" y2="135.89" style="fill:none;stroke:#000;stroke-linecap:round;stroke-linejoin:round"></line><rect x="60.33" y="149.33" width="13.1" height="13.1" style="fill:none;stroke:#000;stroke-linecap:round;stroke-linejoin:round"></rect><line x1="79.44" y1="155.89" x2="117.67" y2="155.89" style="fill:none;stroke:#000;stroke-linecap:round;stroke-linejoin:round"></line><rect x="60.33" y="169.33" width="13.1" height="13.1" style="fill:none;stroke:#000;stroke-linecap:round;stroke-linejoin:round"></rect><line x1="79.44" y1="175.89" x2="117.67" y2="175.89" style="fill:none;stroke:#000;stroke-linecap:round;stroke-linejoin:round"></line><rect x="60.33" y="189.33" width="13.1" height="13.1" style="fill:none;stroke:#000;stroke-linecap:round;stroke-linejoin:round"></rect><line x1="79.44" y1="195.89" x2="117.67" y2="195.89" style="fill:none;stroke:#000;stroke-linecap:round;stroke-linejoin:round"></line><polyline points="63.67 173.33 65.67 178.67 79.67 169.33" style="fill:none;stroke:#000;stroke-linecap:round;stroke-linejoin:round"></polyline><polyline points="63.67 132.67 65.67 138 79.67 128.67" style="fill:none;stroke:#000;stroke-linecap:round;stroke-linejoin:round"></polyline></g><g style="opacity:0.30000000000000004"><rect x="125.67" y="226.46" width="8.96" height="8.96" style="fill:none;stroke:#000;stroke-linecap:round;stroke-linejoin:round"></rect><line x1="138.73" y1="230.94" x2="164.87" y2="230.94" style="fill:none;stroke:#000;stroke-linecap:round;stroke-linejoin:round"></line><rect x="125.67" y="240.13" width="8.96" height="8.96" style="fill:none;stroke:#000;stroke-linecap:round;stroke-linejoin:round"></rect><line x1="138.73" y1="244.61" x2="164.87" y2="244.61" style="fill:none;stroke:#000;stroke-linecap:round;stroke-linejoin:round"></line><rect x="125.67" y="253.8" width="8.96" height="8.96" style="fill:none;stroke:#000;stroke-linecap:round;stroke-linejoin:round"></rect><line x1="138.73" y1="258.28" x2="164.87" y2="258.28" style="fill:none;stroke:#000;stroke-linecap:round;stroke-linejoin:round"></line><rect x="125.67" y="267.48" width="8.96" height="8.96" style="fill:none;stroke:#000;stroke-linecap:round;stroke-linejoin:round"></rect><line x1="138.73" y1="271.96" x2="164.87" y2="271.96" style="fill:none;stroke:#000;stroke-linecap:round;stroke-linejoin:round"></line><polyline points="127.95 256.54 129.31 260.19 138.88 253.8" style="fill:none;stroke:#000;stroke-linecap:round;stroke-linejoin:round"></polyline><polyline points="127.95 228.74 129.31 232.38 138.88 226" style="fill:none;stroke:#000;stroke-linecap:round;stroke-linejoin:round"></polyline></g><path d="M174.11,94.73V89.67l-5.61-.88A13.09,13.09,0,0,0,167.34,86l3.35-4.58-3.58-3.58-4.58,3.35A12.22,12.22,0,0,0,159.71,80l-.87-5.62h-5.06L152.91,80a12,12,0,0,0-2.82,1.16l-4.58-3.35-3.58,3.58L145.28,86a12.15,12.15,0,0,0-1.16,2.81l-5.61.88v5.06l5.61.87a12,12,0,0,0,1.16,2.81L141.93,103l3.58,3.57,4.58-3.34a13,13,0,0,0,2.82,1.16l.87,5.61h5.06l.87-5.61a13.17,13.17,0,0,0,2.82-1.16l4.58,3.34,3.58-3.57-3.35-4.59a12.89,12.89,0,0,0,1.16-2.81Zm-17.8,5.47a8,8,0,1,1,8-8A8,8,0,0,1,156.31,100.2Z" style="fill:none;stroke:#000;stroke-linecap:round;stroke-linejoin:round;opacity:0.30000000000000004"></path><path d="M141,110.2v-3.39l-3.76-.58a8.24,8.24,0,0,0-.77-1.89l2.24-3.06-2.4-2.4-3.06,2.24a8.24,8.24,0,0,0-1.89-.77l-.58-3.76h-3.39l-.58,3.76a8.17,8.17,0,0,0-1.88.77l-3.07-2.24-2.39,2.4,2.24,3.06a7.84,7.84,0,0,0-.78,1.89l-3.76.58v3.39l3.76.58a7.77,7.77,0,0,0,.78,1.88l-2.24,3.07,2.39,2.39,3.07-2.24a7.77,7.77,0,0,0,1.88.78l.58,3.76h3.39l.58-3.76a7.84,7.84,0,0,0,1.89-.78l3.06,2.24,2.4-2.39-2.24-3.07a8.17,8.17,0,0,0,.77-1.88Zm-11.91,3.66a5.36,5.36,0,1,1,5.35-5.36A5.36,5.36,0,0,1,129.09,113.86Z" style="fill:none;stroke:#000;stroke-linecap:round;stroke-linejoin:round;opacity:0.30000000000000004"></path><path d="M319.32,321.55l-2.69,4.29,4.29,3.72a12.91,12.91,0,0,0-.51,3l-5.27,2.1,1.13,4.93,5.66-.4a12.6,12.6,0,0,0,1.77,2.48l-2.24,5.22,4.28,2.69,3.72-4.29a13,13,0,0,0,3,.51l2.1,5.27,4.93-1.13-.4-5.66a12.2,12.2,0,0,0,2.48-1.77l5.22,2.24,2.69-4.28-4.3-3.72a12.5,12.5,0,0,0,.52-3l5.27-2.1-1.13-4.93-5.66.4a12.9,12.9,0,0,0-1.77-2.48l2.24-5.22-4.29-2.68L336.65,321a11.86,11.86,0,0,0-3-.51l-2.1-5.28-4.93,1.13L327,322a12.55,12.55,0,0,0-2.48,1.76Zm18,4.82a8,8,0,1,1-11,2.53A8,8,0,0,1,337.31,326.37Z" style="fill:none;stroke:#000;stroke-linecap:round;stroke-linejoin:round;opacity:0.30000000000000004"></path><path d="M355.59,326l-1.8,2.87,2.87,2.49a8.64,8.64,0,0,0-.34,2l-3.53,1.41.76,3.3,3.79-.27a8.35,8.35,0,0,0,1.18,1.66L357,343l2.87,1.8,2.49-2.87a8.13,8.13,0,0,0,2,.34l1.41,3.53,3.3-.76-.27-3.78a8.28,8.28,0,0,0,1.66-1.19l3.49,1.5,1.8-2.86-2.87-2.49a8.81,8.81,0,0,0,.34-2l3.53-1.41-.76-3.3-3.79.27a8.35,8.35,0,0,0-1.18-1.66l1.5-3.49-2.87-1.8-2.49,2.87a8.13,8.13,0,0,0-2-.34l-1.41-3.53-3.3.76.27,3.78a8.7,8.7,0,0,0-1.66,1.19Zm12,3.22a5.36,5.36,0,1,1-7.38,1.7A5.36,5.36,0,0,1,367.63,329.26Z" style="fill:none;stroke:#000;stroke-linecap:round;stroke-linejoin:round;opacity:0.30000000000000004"></path></g><g id="freepik--drawers-2--inject-10"><rect x="25.23" y="257.87" width="84.38" height="46.75" transform="translate(134.84 562.5) rotate(180)" style="fill:#fff;stroke:#263238;stroke-linecap:round;stroke-linejoin:round"></rect><rect x="27.79" y="257.87" width="84.38" height="46.75" transform="translate(139.97 562.5) rotate(180)" style="fill:#fff;stroke:#263238;stroke-linecap:round;stroke-linejoin:round"></rect><polygon points="70.33 265.09 56.33 289.35 84.33 289.35 70.33 265.09" style="fill:#06183B;stroke:#263238;stroke-linecap:round;stroke-linejoin:round"></polygon><rect x="397.74" y="341.87" width="84.38" height="46.75" style="fill:#fff;stroke:#263238;stroke-linecap:round;stroke-linejoin:round"></rect><rect x="395.17" y="341.87" width="84.38" height="46.75" style="fill:#fff;stroke:#263238;stroke-linecap:round;stroke-linejoin:round"></rect><polygon points="435.86 350.75 440.33 359.82 450.33 361.27 443.09 368.33 444.8 378.29 435.86 373.59 426.91 378.29 428.62 368.33 421.38 361.27 431.38 359.82 435.86 350.75" style="fill:#06183B;stroke:#263238;stroke-linecap:round;stroke-linejoin:round"></polygon></g><g id="freepik--Character--inject-10"><path d="M236.64,258.77s-32.62,9.08-34,12.2-19.86,36.59-19.86,36.59l16.45,23.83L213.38,313l5.1,43.69s-6.24,10.21-4,14.75a13.88,13.88,0,0,0,6.24,6.24h74.33s4.54-5.39,3.4-12.48-3.12-15.89-3.12-15.89l-.28-25,8.51-26.1,41.7-.28L338.2,268.7s-28.94-6.24-30.92-7.38-11.92-3.12-16.74-3.12H276.92l-37.73-.28Z" style="fill:#06183B;stroke:#263238;stroke-linecap:round;stroke-linejoin:round"></path><polyline points="207.32 289.54 213.38 312.95 202.03 292.52" style="fill:none;stroke:#263238;stroke-linecap:round;stroke-linejoin:round"></polyline><line x1="205.15" y1="281.18" x2="206.15" y2="285.02" style="fill:none;stroke:#263238;stroke-linecap:round;stroke-linejoin:round"></line><line x1="196.33" y1="303.43" x2="191.54" y2="300.75" style="fill:none;stroke:#263238;stroke-linecap:round;stroke-linejoin:round"></line><line x1="213.38" y1="312.95" x2="198.89" y2="304.86" style="fill:none;stroke:#263238;stroke-linecap:round;stroke-linejoin:round"></line><polyline points="309.83 274.94 303.59 298.2 316.07 274.94" style="fill:none;stroke:#263238;stroke-linecap:round;stroke-linejoin:round"></polyline><line x1="326.71" y1="284.09" x2="330.54" y2="281.75" style="fill:none;stroke:#263238;stroke-linecap:round;stroke-linejoin:round"></line><line x1="303.59" y1="298.2" x2="322.55" y2="286.62" style="fill:none;stroke:#263238;stroke-linecap:round;stroke-linejoin:round"></line><line x1="272.58" y1="334.68" x2="276.07" y2="331.96" style="fill:none;stroke:#263238;stroke-linecap:round;stroke-linejoin:round"></line><line x1="233.52" y1="365.15" x2="269.87" y2="336.79" style="fill:none;stroke:#263238;stroke-linecap:round;stroke-linejoin:round"></line><line x1="253.94" y1="345.57" x2="233.52" y2="360.04" style="fill:none;stroke:#263238;stroke-linecap:round;stroke-linejoin:round"></line><polygon points="243.45 238.34 241.75 260.75 258.48 279.48 272.95 261.6 268.41 239.48 243.45 238.34" style="fill:#fff;stroke:#263238;stroke-linecap:round;stroke-linejoin:round"></polygon><path d="M268.41,239.48l-25-1.14L243,244c3.73,4.33,11.2,13.8,14.22,14.56,2.53.63,9-6.64,12.65-11.87Z" style="fill:#263238;stroke:#263238;stroke-linecap:round;stroke-linejoin:round"></path><polygon points="238.91 247.14 254.51 266.99 243.73 287.7 233.8 259.05 238.91 247.14" style="fill:#fff;stroke:#263238;stroke-linecap:round;stroke-linejoin:round"></polygon><polygon points="275.5 247.14 259.9 266.99 270.68 287.7 280.61 259.05 275.5 247.14" style="fill:#fff;stroke:#263238;stroke-linecap:round;stroke-linejoin:round"></polygon><path d="M233.53,209.12s-3.12-6.52-5.95-1.42S233.82,223,235,223,233.53,209.12,233.53,209.12Z" style="fill:#fff;stroke:#263238;stroke-linecap:round;stroke-linejoin:round"></path><path d="M278.64,209.12s3.12-6.52,6-1.42S278.36,223,277.22,223,278.64,209.12,278.64,209.12Z" style="fill:#fff;stroke:#263238;stroke-linecap:round;stroke-linejoin:round"></path><path d="M231.58,187.56c.22,4.65,1.87,37.41,4.51,44.26,2.83,7.37,15.88,19.29,22.12,18.72s17.31-14.47,18.73-19.57c1.27-4.59,2.32-36.93,2.52-43.41Z" style="fill:#fff;stroke:#263238;stroke-linecap:round;stroke-linejoin:round"></path><path d="M238.92,213.66s4,4.26,11.35-.28" style="fill:none;stroke:#263238;stroke-linecap:round;stroke-linejoin:round"></path><path d="M274.1,213.66s-4,4.26-11.35-.28" style="fill:none;stroke:#263238;stroke-linecap:round;stroke-linejoin:round"></path><path d="M253.11,224.73s2.83,5.39,9.08,0" style="fill:none;stroke:#263238;stroke-linecap:round;stroke-linejoin:round"></path><line x1="254.81" y1="234.37" x2="259.92" y2="234.37" style="fill:none;stroke:#263238;stroke-linecap:round;stroke-linejoin:round"></line><path d="M237.22,206s2-2,12.2-.28" style="fill:none;stroke:#263238;stroke-linecap:round;stroke-linejoin:round;stroke-width:2px"></path><path d="M274.38,206s-2-2-12.19-.28" style="fill:none;stroke:#263238;stroke-linecap:round;stroke-linejoin:round;stroke-width:2px"></path><path d="M345,267.85s30.63-64.4,33.75-64.68,6.81,4,5.68,9.64S367.7,273,364.3,284.3s-7.95,15.88-11.63,14.47S345,267.85,345,267.85Z" style="fill:#fff;stroke:#263238;stroke-linecap:round;stroke-linejoin:round"></path><path d="M171.22,307.5s15.66,35.57,19.3,34.94S205,331,205.45,328.92s-6.72-13.81-14-19.17-9.61-7.26-10.73-7.07S173,306.32,171.22,307.5Z" style="fill:#fff;stroke:#263238;stroke-linecap:round;stroke-linejoin:round"></path><path d="M335.64,265.86s-2.83,19-.28,26.67,5.11,8.79,9.36,9.07,10.5-.85,11.63-3.68-9.07-30.64-10.21-32.63S339.33,263.59,335.64,265.86Z" style="fill:#fff;stroke:#263238;stroke-linecap:round;stroke-linejoin:round"></path><path d="M117.62,298.94a68,68,0,0,0-7.07-4.25s-4.53-1.23-5.54-5.37,4.82-5.44,4.82-5.44c3.73-.07,67.19,27.22,67.19,27.22,10.76,12.24,12.67,26.59,13,28.55a2.57,2.57,0,0,1-2.36,3c-1.12.19-20.17-8.27-25.86-11.35-12.08-6.55-40.63-30.1-40.63-30.1Z" style="fill:#fff;stroke:#263238;stroke-linecap:round;stroke-linejoin:round"></path><path d="M88.87,308.12s-2.72,4.17-5.57,6-6.61,3-5.41,3.84,2.62,1.4,5.56.09,6.4-2.69,6.4-2.69S92.93,307.16,88.87,308.12Z" style="fill:#fff;stroke:#263238;stroke-linecap:round;stroke-linejoin:round"></path><path d="M88.32,309.54s-2.56,8.1-5.79,10.78-7.89,4.8-4.89,5.33,4.87-.84,8.92-3.39,5.28-4.61,4.69-9.53S90,307.13,88.32,309.54Z" style="fill:#fff;stroke:#263238;stroke-linecap:round;stroke-linejoin:round"></path><path d="M88.6,306.58s-.24,9.29-.86,13.36-8.26,11.74-5,12,8.89-8.14,10.19-11.27,2.25-3.83,1.25-6.56S89.39,303.54,88.6,306.58Z" style="fill:#fff;stroke:#263238;stroke-linecap:round;stroke-linejoin:round"></path><circle cx="105.14" cy="331.02" r="13.69" transform="translate(-209.63 184.22) rotate(-47.38)" style="fill:#263238;stroke:#263238;stroke-linecap:round;stroke-linejoin:round"></circle><path d="M115.73,286.3s-8.46-4.61-12.42-1.55S90.45,302,87.52,304.92s2.55,10.13,4.43,16.41.37,11.29,3.61,10.2,1.9-4.29,2.12-10.67-2.35-12-2.22-12.82,6.51-5.09,10.67-4,6.23,3.93,6,7.15-2.61,12.34-1.4,14.77,3.44,3.1,4.78-1.36,4.93-12.74,5.68-16-6.58-18.14-6.58-18.14" style="fill:#fff;stroke:#263238;stroke-linecap:round;stroke-linejoin:round"></path><path d="M98,342.7a13.7,13.7,0,0,1,6.67-25.37" style="fill:#263238;stroke:#263238;stroke-linecap:round;stroke-linejoin:round"></path><path d="M409.59,213.38s4.35,2.4,7.73,2.65,7.24-.48,6.58.84-1.65,2.46-4.86,2.71-6.92.64-6.92.64S405.55,214.45,409.59,213.38Z" style="fill:#fff;stroke:#263238;stroke-linecap:round;stroke-linejoin:round"></path><path d="M410.74,214.37s6.08,5.94,10.19,6.77,9.22.51,6.83,2.4-4.7,1.56-9.47,1.22-6.83-1.58-8.63-6.19S408.1,213.05,410.74,214.37Z" style="fill:#fff;stroke:#263238;stroke-linecap:round;stroke-linejoin:round"></path><path d="M409.09,211.9s4.6,8.08,7.06,11.37,12.83,6.45,10.11,8.17-11.68-3-14.31-5.13-3.78-2.31-4.19-5.19S407,209.59,409.09,211.9Z" style="fill:#fff;stroke:#263238;stroke-linecap:round;stroke-linejoin:round"></path><rect x="392.93" y="231.9" width="21.11" height="21.11" style="fill:#06183B;stroke:#263238;stroke-linecap:round;stroke-linejoin:round"></rect><path d="M375.6,206.82s5.29-8.06,10.22-7.22,19.49,9.17,23.44,10.33,2.54,10.13,3.84,16.55,5,10.13,1.63,10.7-3.7-2.89-6.9-8.41-3.6-11.69-4.09-12.35S395.59,215,392.46,218s-3.64,6.42-1.91,9.14,8.13,9.64,8.2,12.36-1.57,4.36-4.85,1.06-10.36-8.91-12.58-11.47-2.76-19.1-2.76-19.1" style="fill:#fff;stroke:#263238;stroke-linecap:round;stroke-linejoin:round"></path><polyline points="403.53 231.91 414.04 231.91 414.04 242.57" style="fill:#06183B;stroke:#263238;stroke-linecap:round;stroke-linejoin:round"></polyline><path d="M220.75,377.63l-5,18.76-53.66-2.32s32.43,26.64,48.25,32,37.45,11.2,55.59,9.65,35.9-5,54-13.9,29-26.25,29-26.25H297.56l-2.48-18Z" style="fill:#263238;stroke:#263238;stroke-linecap:round;stroke-linejoin:round"></path><path d="M297.23,420.81s12.34.91,21.23-1.38,15.3,2.09,16.11,10.38-3.34,15.91-14.37,16.74-26.79-6.39-26.79-6.39S289.09,429.05,297.23,420.81Z" style="fill:#fff;stroke:#263238;stroke-linecap:round;stroke-linejoin:round"></path><path d="M309.72,445.2s10.21,2.45,15.12-2.58,5.9-12.27,4.36-18a8.15,8.15,0,0,0-6.06-5.82c6.39.07,10.77,4.23,11.43,11,.81,8.3-3.34,15.91-14.37,16.74a41.19,41.19,0,0,1-12.59-1.47Z" style="fill:#fff;stroke:#263238;stroke-linecap:round;stroke-linejoin:round"></path><path d="M293.81,424.25s6.17,2.74,11.25,2.59,7.21,4.36,4,7.51-16.38-.55-17.54-1.34S290.75,426.57,293.81,424.25Z" style="fill:#fff;stroke:#263238;stroke-linecap:round;stroke-linejoin:round"></path><path d="M236.19,391.92a391.81,391.81,0,0,1-55.93-30c-9.19-6.06-18.39-8.36-26.33-1.88s-7.52,20.69-1.05,28,26.55,14.63,45.57,22.58,57.47,17.13,68.55,20.06,14.21,4.81,16.93,7.32,9.48,2.19,9.48,2.19-.07-8.46,1.81-12.44,3.13-6.68,3.13-6.68-3.34-2.51-6.48-4.81-4-.63-10.45-4.81c-7.16-4.62-15.94-7.39-23.81-10.51C250.49,398.09,243.33,395.09,236.19,391.92Z" style="fill:#263238;stroke:#263238;stroke-linecap:round;stroke-linejoin:round"></path><path d="M202.22,423s-12.36-.77-20.85-4.24-15.44,0-17.37,8.1,1.16,16.22,12,18.53,27.4-2.7,27.4-2.7S209.16,432.29,202.22,423Z" style="fill:#fff;stroke:#263238;stroke-linecap:round;stroke-linejoin:round"></path><path d="M186.53,445.49s-10.45,1-14.63-4.6-4.18-13-1.88-18.39a8.13,8.13,0,0,1,6.79-4.95c-6.34-.79-11.24,2.73-12.81,9.33-1.93,8.11,1.16,16.22,12,18.53a41.43,41.43,0,0,0,12.67.25Z" style="fill:#fff;stroke:#263238;stroke-linecap:round;stroke-linejoin:round"></path><path d="M205.14,426.89s-6.48,1.88-11.5,1-7.73,3.35-5,6.9,16.31,1.67,17.56,1.05S207.85,429.61,205.14,426.89Z" style="fill:none;stroke:#263238;stroke-linecap:round;stroke-linejoin:round"></path><path d="M217.27,419.93s71.42-29.33,96.89-43.23,44-9.65,44,5.4-20.85,25.1-37.44,32.43-81.07,22.39-88.4,23.55-8.5,1.54-8.5,1.54-3.86,4.25-5,4.63-17-2.31-17-2.31,3.86-8.11,2.7-11.58-2.31-7.34-2.31-7.34S211.09,416.46,217.27,419.93Z" style="fill:#263238;stroke:#263238;stroke-linecap:round;stroke-linejoin:round"></path></g><g id="freepik--drawers-1--inject-10"><rect x="439.65" y="262.72" width="42.48" height="36.49" style="fill:#263238;stroke:#263238;stroke-linecap:round;stroke-linejoin:round"></rect><rect x="439.65" y="270.07" width="42.48" height="29.14" style="fill:#b0b0b0;stroke:#263238;stroke-linecap:round;stroke-linejoin:round"></rect><rect x="363.53" y="257.87" width="84.38" height="46.75" style="fill:#fff;stroke:#263238;stroke-linecap:round;stroke-linejoin:round"></rect><rect x="360.96" y="257.87" width="84.38" height="46.75" style="fill:#fff;stroke:#263238;stroke-linecap:round;stroke-linejoin:round"></rect><rect x="389.26" y="269.13" width="21.11" height="21.11" style="fill:#06183B;stroke:#263238;stroke-linecap:round;stroke-linejoin:round"></rect><rect x="25.23" y="346.72" width="42.48" height="36.49" transform="translate(92.93 729.92) rotate(180)" style="fill:#263238;stroke:#263238;stroke-linecap:round;stroke-linejoin:round"></rect><rect x="25.23" y="354.07" width="42.48" height="29.14" transform="translate(92.93 737.28) rotate(180)" style="fill:#b0b0b0;stroke:#263238;stroke-linecap:round;stroke-linejoin:round"></rect><rect x="59.44" y="341.87" width="84.38" height="46.75" transform="translate(203.26 730.5) rotate(180)" style="fill:#fff;stroke:#263238;stroke-linecap:round;stroke-linejoin:round"></rect><rect x="62" y="341.87" width="84.38" height="46.75" transform="translate(208.39 730.5) rotate(180)" style="fill:#fff;stroke:#263238;stroke-linecap:round;stroke-linejoin:round"></rect><circle cx="106.28" cy="365.66" r="13.49" transform="translate(-219.46 168.44) rotate(-42.6)" style="fill:#06183B;stroke:#263238;stroke-linecap:round;stroke-linejoin:round"></circle></g></svg>